<svg id="Layer_1" xmlns="http://www.w3.org/2000/svg" viewBox="0 0 150 30"><style>.st0{display:none}.st1{display:inline}.st2{fill:#666}.st3{fill:red}.st4{fill:#5bb85c}.st5{fill:#e2e0db}.st6{fill:#fc0}</style><g id="grid" class="st0"><path d="M14.7.3v14.4H.3V.3h14.4M15 0H0v15h15V0zm14.7.3v14.4H15.3V.3h14.4M30 0H15v15h15V0zm14.7.3v14.4H30.3V.3h14.4M45 0H30v15h15V0zm14.7.3v14.4H45.3V.3h14.4M60 0H45v15h15V0zm14.7.3v14.4H60.3V.3h14.4M75 0H60v15h15V0zm14.7.3v14.4H75.3V.3h14.4M90 0H75v15h15V0zm14.7.3v14.4H90.3V.3h14.4m.3-.3H90v15h15V0zm14.7.3v14.4h-14.4V.3h14.4m.3-.3h-15v15h15V0zm14.7.3v14.4h-14.4V.3h14.4m.3-.3h-15v15h15V0zm14.7.3v14.4h-14.4V.3h14.4m.3-.3h-15v15h15V0zM14.7 15.3v14.4H.3V15.3h14.4m.3-.3H0v15h15V15z" class="st1"/><path d="M29.7 15.3v14.4H15.3V15.3h14.4m.3-.3H15v15h15V15z" class="st1"/><path d="M44.7 15.3v14.4H30.3V15.3h14.4m.3-.3H30v15h15V15zm14.7.3v14.4H45.3V15.3h14.4m.3-.3H45v15h15V15zm14.7.3v14.4H60.3V15.3h14.4m.3-.3H60v15h15V15zm14.7.3v14.4H75.3V15.3h14.4m.3-.3H75v15h15V15zm14.7.3v14.4H90.3V15.3h14.4m.3-.3H90v15h15V15zm14.7.3v14.4h-14.4V15.3h14.4m.3-.3h-15v15h15V15zm14.7.3v14.4h-14.4V15.3h14.4m.3-.3h-15v15h15V15zm14.7.3v14.4h-14.4V15.3h14.4m.3-.3h-15v15h15V15z" class="st1"/></g><g id="icons"><path class="st2" d="M57 3.8l-.7-.7-3.8 3.7-3.7-3.7-.7.7 3.7 3.7-3.7 3.8.7.7 3.7-3.8 3.8 3.8.7-.7-3.8-3.8zM11.3 19.4l-.7-.7-3.1 3.1-3.1-3.1-.7.7 3.1 3.1-3.1 3.1.7.7 3.1-3.1 3.1 3.1.7-.7-3.1-3.1z"/><path class="st3" d="M26.3 19.4l-.7-.7-3.1 3.1-3.1-3.1-.7.7 3.1 3.1-3.1 3.1.7.7 3.1-3.1 3.1 3.1.7-.7-3.1-3.1z"/><path class="st3" d="M22 18.1h1V21h-1zm2 3.9h2.9v1H24zm-2 2h1v2.9h-1zm-3.9-2H21v1h-2.9z"/><path class="st2" d="M32 22h10.9v1H32zM16 7h13v1H16zm0-4h13v1H16zm0 8.1h13v1H16zM43 7h-5V2.1h-1V7h-5v1h5v5h1V8h5zm61 0h-6V1h-1v6h-6v1h6v6.1h1V8h6zM91 22h13v1H91z"/><circle class="st4" cx="52.5" cy="22.5" r="4.4"/><circle class="st4" cx="67.5" cy="7.5" r="4.4"/><path class="st5" d="M82.5 12.4c-2.7 0-4.9-2.2-4.9-4.9s2.2-4.9 4.9-4.9 4.9 2.2 4.9 4.9-2.2 4.9-4.9 4.9zm0-8.8c-2.2 0-3.9 1.8-3.9 3.9s1.8 3.9 3.9 3.9c2.2 0 3.9-1.8 3.9-3.9s-1.7-3.9-3.9-3.9z"/><circle class="st3" cx="67.5" cy="22.5" r="4.4"/><circle class="st6" cx="82.5" cy="22.5" r="4.4"/><path class="st2" d="M7.5 1.1C4 1.1 1.1 4 1.1 7.5S4 14 7.5 14s6.4-2.9 6.4-6.4-2.8-6.5-6.4-6.5zm0 11.9c-3 0-5.4-2.4-5.4-5.4s2.4-5.4 5.4-5.4 5.4 2.4 5.4 5.4S10.5 13 7.5 13z"/><path class="st2" d="M7 7h1v4H7zm0-3h1v1H7z"/><path class="st5" d="M108.5 9.7l4-4.3 4.1 4.3zm23.1-4.3l-4.1 4.3-4-4.3z"/><path class="st2" d="M140.6 15l-.7-.7 6.7-6.8-6.7-6.7.7-.7 7.4 7.4z"/></g><path class="st2" d="M129.9 22.5l-.7-.6-3.4-3.5-.6.7 3.4 3.4-3.4 3.4.6.7 3.4-3.5zm-19.1.6l3.4 3.5.7-.7-3.4-3.4 3.4-3.4-.7-.7-3.4 3.5-.6.6zm27.6-.6l7.5-7.4.7.7-6.8 6.7 6.8 6.7-.7.7z"/></svg>